<svg xmlns:dc="http://purl.org/dc/elements/1.1/" xmlns:cc="http://creativecommons.org/ns#" xmlns:rdf="http://www.w3.org/1999/02/22-rdf-syntax-ns#" xmlns:svg="http://www.w3.org/2000/svg" xmlns="http://www.w3.org/2000/svg" xmlns:sodipodi="http://sodipodi.sourceforge.net/DTD/sodipodi-0.dtd" xmlns:inkscape="http://www.inkscape.org/namespaces/inkscape" version="1.1" x="0px" y="0px" viewBox="0 0 500 500" style="background-color:#ffe600">

<g transform="matrix(-5.698347, 0, 0, 5.625615, 540.2276, -5390.364258)" style="">
  <path style="" d="m 94.548688,958.35386 c -2.6503,-0.83126 -84.686385,0 -84.686385,0 0,0 -2.276136,1.09742 -2.627501,2.42539 -0.351366,1.32797 0.423584,3.07275 1.414808,4.44654 0.991224,1.37379 2.320011,3.01815 4.446541,3.23385 2.126531,0.21569 5.005465,-1.00695 6.66981,0.20211 1.664345,1.20906 2.60531,4.79783 4.244425,6.06347 1.639115,1.26563 15.010095,6.37209 16.775585,7.47827 1.76549,1.10618 15.290925,4.64698 16.977697,5.45712 1.68678,0.81013 6.53191,1.72626 8.28674,4.04231 1.75483,2.31605 4.02253,6.61318 4.64865,9.09518 0.62613,2.482 -1.62482,10.2664 0.40424,13.7439 2.02905,3.4775 8.26406,5.7462 11.31628,9.3269 3.05222,3.5807 4.70186,8.8404 5.86353,12.5015 1.16168,3.6612 -0.18288,7.5872 1.61693,9.0952 1.7998,1.5081 4.48116,1.8813 4.85077,0 0.3696,-1.8812 0.0968,-64.36199 -0.20212,-87.11174 z" fill="#000000" stroke="#000000" stroke-width="0.14148083px" stroke-linecap="butt" stroke-linejoin="miter" stroke-opacity="1"></path>
</g>

</svg>